<?xml version="1.0" encoding="utf-8"?>
<!-- Generator: Adobe Illustrator 23.0.3, SVG Export Plug-In . SVG Version: 6.00 Build 0)  -->
<svg version="1.1" id="Capa_1" xmlns="http://www.w3.org/2000/svg" xmlns:xlink="http://www.w3.org/1999/xlink" x="0px" y="0px"
	 viewBox="0 0 781.5 422" style="enable-background:new 0 0 781.5 422;" xml:space="preserve">
<style type="text/css">
	.st0{fill:#FFFFFF;}
	.st1{fill:#8CC63F;}
	.st2{fill:url(#SVGID_1_);}
	.st3{fill:#29ABE2;}
</style>
<title>Recurso 3</title>
<g>
	<g id="Capa_2-2">
		<path class="st0" d="M73.2,111.8L213.9,243l80.4-75.3L165.4,47.5C128.2,57.9,95.7,80.6,73.2,111.8z"/>
		<path class="st0" d="M490.4,70h14.8c15.7,0,23.2,11.4,23.2,33.6c0,24.2-6.6,37.6-24.4,37.6h-13.6V70z M496.4,135.9h7.3
			c14.1,0,18.5-11.4,18.5-32c0-19.8-5.5-28.6-18.4-28.6h-7.4L496.4,135.9z"/>
		<path class="st0" d="M543.6,115.7c0,11.7,2.1,21.3,11.1,21.3s10.3-8.9,10.6-10.4h5.9c-0.1,1.3-1.7,15.6-16.5,15.6
			c-14.9,0-17-14.2-17-27.2c0-16.7,5.5-27.3,17.5-27.3c13.3,0,16.4,11.4,16.4,24.3c0,0.7,0,2.2-0.1,3.6L543.6,115.7z M565.6,110.8
			c0-10.6-2.4-17.9-10.6-17.9c-10.6,0-11.2,14.3-11.3,17.9H565.6z"/>
		<path class="st0" d="M587.7,135.4v25.4h-5.9V104c0-7.3,0-12.2-0.1-15.4h5.7c0.1,0.9,0.2,4.7,0.2,7.6c1.9-5,5.9-8.4,12.8-8.4
			c10.1,0,15.4,9,15.4,26.5c0,18.3-6.5,28-16.9,28C592.3,142.2,589.2,138.9,587.7,135.4z M609.8,114.5c0-13.5-3.2-21.5-10.8-21.5
			c-9,0-11.6,8.5-11.6,21.8c0,12.7,1.4,22,11,22C605.9,136.9,609.8,127.9,609.8,114.5z"/>
		<path class="st0" d="M655.3,132.8c0,3.6,0.3,7.1,0.4,8.5h-5.4c-0.4-2.1-0.5-4.3-0.5-6.4c-1.9,4.7-6.1,7.4-12.7,7.4
			c-10.1,0-13.7-7.9-13.7-15.1c0-9.2,6.2-16.7,20.2-16.7c2-0.1,4,0,6,0.2v-7.5c0-4.5-0.9-10.3-8.8-10.3c-8.8,0-9.2,6.4-9.5,9.9h-5.8
			c0.2-7.4,3.8-15,15.4-15c9.8,0,14.4,4.9,14.4,14.5L655.3,132.8z M649.6,115.6c-1.9-0.2-3.8-0.3-5.7-0.3c-10.3,0-14.6,5-14.6,11.4
			c0,5.5,3,10.3,9,10.3c8.3,0,11.3-5.8,11.3-18.1L649.6,115.6z"/>
		<path class="st0" d="M669.6,126.4c0.4,6.4,3.9,10.8,10.3,10.8s9.5-4,9.5-9.4c0-6.1-3.2-8.8-10.4-11.6c-10.3-4-13.5-7.8-13.5-15
			c0-7,4.3-13.5,14.3-13.5c11,0,14.4,7.4,14.5,14.5h-5.9c-0.2-2.8-0.9-9.4-8.8-9.4c-5.7,0-8.1,3.5-8.1,8.1s1.8,6.8,9.5,9.8
			c9.8,3.8,14.4,7.4,14.4,16.6s-5.8,14.9-15.9,14.9c-10.2,0-15.5-6.2-15.8-15.8L669.6,126.4z"/>
		<path class="st0" d="M490.4,161.5h6v65.9h25.8l-1.1,5.4h-30.8V161.5z"/>
		<path class="st0" d="M530.2,180h5.9v52.7h-5.9V180z M530.2,158.1h5.9v10.5h-5.9V158.1z"/>
		<path class="st0" d="M549.3,195.8c0-9,0-13.2-0.1-15.8h5.7c0.2,2.4,0.3,4.8,0.2,7.3c2-4.8,5.6-8.1,11.9-8.1c5.4,0,9.4,2.3,11,8.1
			c1.8-4.4,5.9-8.1,12.7-8.1c6.2,0,12.5,2.9,12.5,15.1v38.4h-5.8v-37.3c0-5.8-1.6-10.9-8.2-10.9c-7.3,0-10,6.8-10,14.1v34.1h-5.9
			v-37.1c0-7.2-2.4-11.1-8-11.1c-6.8,0-10.2,6.6-10.2,15v33.2h-5.9L549.3,195.8z"/>
		<path class="st0" d="M644.5,224.2c0,3.6,0.3,7.1,0.4,8.5h-5.4c-0.4-2.1-0.5-4.3-0.5-6.4c-1.9,4.7-6.1,7.4-12.7,7.4
			c-10.1,0-13.7-7.9-13.7-15.1c0-9.2,6.2-16.7,20.2-16.7c2-0.1,4,0,6,0.2v-7.5c0-4.5-0.9-10.3-8.8-10.3c-8.7,0-9.2,6.4-9.5,9.9h-5.8
			c0.2-7.4,3.8-15,15.4-15c9.8,0,14.4,4.9,14.4,14.5L644.5,224.2z M638.8,207.1c-1.9-0.2-3.8-0.3-5.7-0.3c-10.3,0-14.6,5-14.6,11.4
			c0,5.5,3,10.3,9,10.3c8.3,0,11.3-5.8,11.3-18.1L638.8,207.1z"/>
		<path class="st0" d="M532.7,292.4c0-13.7,0.2-26.8,0.4-34.1h-0.1c-2.7,11.9-10.1,43.6-16.1,65.9h-6c-4.6-18.9-12.3-53.1-15.1-66
			h-0.2c0.4,8.3,0.7,24.3,0.7,36.4v29.6h-5.8v-71.3h8.9c6.5,23.4,12.9,53.2,14.7,62.1h0.1c1.3-7,9.1-39.6,15.5-62.1h9v71.3h-6
			L532.7,292.4z"/>
		<path class="st0" d="M584.1,297.1c0,18.3-5.9,28-17.5,28c-12,0-17.6-9.4-17.6-27.9c0-18.1,6.9-26.7,17.8-26.7
			C578,270.6,584.1,279.5,584.1,297.1z M555.2,297.4c0,15.5,4.2,22.5,11.5,22.5s11.4-7.2,11.4-22.7c0-14.2-3.9-21.3-11.4-21.3
			C559.5,275.9,555.2,282,555.2,297.4z"/>
		<path class="st0" d="M626.1,249.6v61.5c0,4.7,0,10,0.1,13.1h-5.7c-0.1-1.4-0.2-5.1-0.2-7.6c-1.7,4.9-5.1,8.6-12.7,8.6
			c-10.9,0-15.7-9.1-15.7-27.9c0-17.1,6.5-26.6,17.2-26.6c7.2,0,9.9,3.2,11.1,6v-27.1H626.1z M598,297.3c0,16.3,3.9,22.4,10.9,22.4
			c8.9,0,11.4-7.8,11.4-22.7c0-16.6-2.6-21-10.8-21C602.8,276,598,282.2,598,297.3z"/>
		<path class="st0" d="M642.5,298.6c0,11.7,2.1,21.3,11.1,21.3s10.3-8.8,10.6-10.4h5.9c-0.1,1.3-1.7,15.6-16.5,15.6
			c-14.9,0-17-14.2-17-27.2c0-16.7,5.5-27.3,17.5-27.3c13.3,0,16.4,11.4,16.4,24.4c0,0.7,0,2.2-0.1,3.6H642.5z M664.5,293.7
			c0-10.6-2.4-17.9-10.6-17.9c-10.7,0-11.2,14.3-11.3,17.9H664.5z"/>
		<path class="st0" d="M680.7,289.5c0-8.3,0-14.2-0.1-18h5.7c0.1,1.5,0.2,4.1,0.2,9.7c2.3-6.5,7.6-10.4,14-10.5v6.4
			c-9.2,0.5-13.9,7.4-13.9,17v30.1h-5.9L680.7,289.5z"/>
		<path class="st0" d="M707.5,287.8c0-10.8-0.1-14-0.1-16.3h5.7c0.1,1.3,0.2,3.3,0.2,7.5c1.8-4.6,5.6-8.3,12.8-8.3s13.6,3.9,13.6,16
			v37.5h-6v-36.5c0-6.9-2.5-11.7-8.9-11.7c-8.1,0-11.4,5.5-11.4,17.3v30.9h-6L707.5,287.8z"/>
		<path class="st0" d="M781,315.7c0,3.6,0.3,7.1,0.4,8.5h-5.4c-0.4-2.1-0.5-4.3-0.5-6.4c-1.9,4.7-6.1,7.4-12.7,7.4
			c-10.1,0-13.7-7.9-13.7-15.1c0-9.2,6.2-16.7,20.2-16.7c2-0.1,4,0,6,0.2V286c0-4.5-0.9-10.3-8.8-10.3c-8.7,0-9.2,6.4-9.5,9.9h-5.8
			c0.2-7.5,3.8-15,15.5-15c9.8,0,14.3,4.9,14.3,14.5L781,315.7z M775.4,298.5c-1.9-0.2-3.8-0.3-5.7-0.3c-10.3,0-14.6,5-14.6,11.4
			c0,5.5,2.9,10.3,9,10.3c8.3,0,11.3-5.8,11.3-18.1L775.4,298.5z"/>
		<path class="st1" d="M211,422C94.7,422,0,327.4,0,211S94.7,0,211,0s211,94.7,211,211S327.4,422,211,422z M211,16.2
			C103.6,16.2,16.2,103.6,16.2,211S103.6,405.8,211,405.8S405.8,318.4,405.8,211S318.4,16.2,211,16.2L211,16.2z"/>
		
			<linearGradient id="SVGID_1_" gradientUnits="userSpaceOnUse" x1="-42.14" y1="144.18" x2="166.24" y2="144.18" gradientTransform="matrix(1 0 0 -1 0 424)">
			<stop  offset="0" style="stop-color:#006837"/>
			<stop  offset="1" style="stop-color:#8CC63F"/>
		</linearGradient>
		<path class="st2" d="M124.7,179l-78.3,73.4c18.5,73.5,83.4,125.8,159.1,128.3v-126L124.7,179z M127.2,298.7c0,0.9-0.7,1.6-1.6,1.6
			h-19.6c-0.9,0-1.6-0.7-1.6-1.6v-19.6c0-0.9,0.7-1.6,1.6-1.6h19.5c0.9,0,1.6,0.7,1.6,1.6L127.2,298.7z M127.2,270.4
			c0,0.9-0.7,1.6-1.6,1.6h-19.6c-0.9,0-1.6-0.7-1.6-1.6v-19.6c0-0.9,0.7-1.6,1.6-1.6h19.5c0.9,0,1.6,0.7,1.6,1.6L127.2,270.4z
			 M155,298.7c0,0.9-0.7,1.6-1.6,1.6h-19.6c-0.9,0-1.6-0.7-1.6-1.6v-19.5c0-0.9,0.7-1.6,1.6-1.6h19.6c0.9,0,1.6,0.7,1.6,1.6
			L155,298.7z M155,270.4c0,0.9-0.7,1.6-1.6,1.6h-19.5c-0.9,0-1.6-0.7-1.6-1.5c0,0,0,0,0,0v-19.5c0-0.9,0.7-1.6,1.6-1.6c0,0,0,0,0,0
			h19.6c0.9,0,1.6,0.7,1.6,1.6L155,270.4z"/>
		<path class="st0" d="M65.7,123.2C49.7,149.7,41.2,180,41.2,211c0,9.2,0.7,18.3,2.2,27.4l72.4-67.8L65.7,123.2z"/>
		<path class="st3" d="M188.5,49.7l191.2,179.6c10.1-93.2-57.3-177-150.5-187.1c-15.9-1.7-31.9-1.2-47.7,1.6L188.5,49.7z"/>
		<path class="st1" d="M263.8,249.3h19.6c0.9,0,1.6,0.7,1.6,1.6v19.6c0,0.9-0.7,1.6-1.6,1.6h-19.6c-0.9,0-1.6-0.7-1.6-1.6v-19.6
			C262.2,250,262.9,249.3,263.8,249.3z"/>
		<path class="st1" d="M291.6,249.3h19.6c0.9,0,1.6,0.7,1.6,1.6v19.6c0,0.9-0.7,1.6-1.6,1.6h-19.6c-0.9,0-1.6-0.7-1.6-1.6v-19.6
			C290,250,290.7,249.3,291.6,249.3z"/>
		<path class="st1" d="M291.6,277.4h19.6c0.9,0,1.6,0.7,1.6,1.6v19.6c0,0.9-0.7,1.6-1.6,1.6h-19.6c-0.9,0-1.6-0.7-1.6-1.6V279
			C290,278.1,290.7,277.4,291.6,277.4z"/>
		<path class="st1" d="M319.9,249.3h19.6c0.9,0,1.6,0.7,1.6,1.6v19.6c0,0.9-0.7,1.6-1.6,1.6h-19.6c-0.9,0-1.6-0.7-1.6-1.6v-19.6
			C318.4,250,319,249.3,319.9,249.3z"/>
		<path class="st1" d="M263.8,277.4h19.6c0.9,0,1.6,0.7,1.6,1.6v19.6c0,0.9-0.7,1.6-1.6,1.6h-19.6c-0.9,0-1.6-0.7-1.6-1.6V279
			C262.2,278.1,262.9,277.4,263.8,277.4z"/>
		<path class="st1" d="M319.9,277.4h19.6c0.9,0,1.6,0.7,1.6,1.6v19.6c0,0.9-0.7,1.6-1.6,1.6h-19.6c-0.9,0-1.6-0.7-1.6-1.6V279
			C318.4,278.1,319,277.4,319.9,277.4z"/>
	</g>
</g>
</svg>
