<?xml version="1.0" encoding="utf-8"?>
<!-- Generator: Adobe Illustrator 23.0.3, SVG Export Plug-In . SVG Version: 6.00 Build 0)  -->
<svg version="1.1" id="Capa_1" xmlns="http://www.w3.org/2000/svg" xmlns:xlink="http://www.w3.org/1999/xlink" x="0px" y="0px"
	 viewBox="0 0 422 422" style="enable-background:new 0 0 422 422;" xml:space="preserve">
<style type="text/css">
	.st0{fill:#FFFFFF;}
	.st1{fill:#8CC63F;}
	.st2{fill:#29ABE2;}
</style>
<title>Recurso 3</title>
<g>
	<g id="Capa_2-2">
		<path class="st0" d="M73.2,111.8L213.9,243l80.4-75.3L165.4,47.5C128.2,57.9,95.7,80.6,73.2,111.8z"/>
		<path class="st1" d="M211,422C94.7,422,0,327.4,0,211S94.7,0,211,0s211,94.7,211,211S327.4,422,211,422z M211,16.2
			C103.6,16.2,16.2,103.6,16.2,211S103.6,405.8,211,405.8S405.8,318.4,405.8,211S318.4,16.2,211,16.2L211,16.2z"/>
		<path class="st1" d="M124.7,179l-78.3,73.4c18.5,73.5,83.4,125.8,159.1,128.3v-126L124.7,179z M127.2,298.7c0,0.9-0.7,1.6-1.6,1.6
			H106c-0.9,0-1.6-0.7-1.6-1.6v-19.6c0-0.9,0.7-1.6,1.6-1.6h19.5c0.9,0,1.6,0.7,1.6,1.6L127.2,298.7z M127.2,270.4
			c0,0.9-0.7,1.6-1.6,1.6H106c-0.9,0-1.6-0.7-1.6-1.6v-19.6c0-0.9,0.7-1.6,1.6-1.6h19.5c0.9,0,1.6,0.7,1.6,1.6L127.2,270.4z
			 M155,298.7c0,0.9-0.7,1.6-1.6,1.6h-19.6c-0.9,0-1.6-0.7-1.6-1.6v-19.5c0-0.9,0.7-1.6,1.6-1.6h19.6c0.9,0,1.6,0.7,1.6,1.6V298.7z
			 M155,270.4c0,0.9-0.7,1.6-1.6,1.6h-19.5c-0.9,0-1.6-0.7-1.6-1.5l0,0V251c0-0.9,0.7-1.6,1.6-1.6l0,0h19.6c0.9,0,1.6,0.7,1.6,1.6
			L155,270.4z"/>
		<path class="st0" d="M65.7,123.2c-16,26.5-24.5,56.8-24.5,87.8c0,9.2,0.7,18.3,2.2,27.4l72.4-67.8L65.7,123.2z"/>
		<path class="st2" d="M188.5,49.7l191.2,179.6c10.1-93.2-57.3-177-150.5-187.1c-15.9-1.7-31.9-1.2-47.7,1.6L188.5,49.7z"/>
		<path class="st1" d="M263.8,249.3h19.6c0.9,0,1.6,0.7,1.6,1.6v19.6c0,0.9-0.7,1.6-1.6,1.6h-19.6c-0.9,0-1.6-0.7-1.6-1.6v-19.6
			C262.2,250,262.9,249.3,263.8,249.3z"/>
		<path class="st1" d="M291.6,249.3h19.6c0.9,0,1.6,0.7,1.6,1.6v19.6c0,0.9-0.7,1.6-1.6,1.6h-19.6c-0.9,0-1.6-0.7-1.6-1.6v-19.6
			C290,250,290.7,249.3,291.6,249.3z"/>
		<path class="st1" d="M291.6,277.4h19.6c0.9,0,1.6,0.7,1.6,1.6v19.6c0,0.9-0.7,1.6-1.6,1.6h-19.6c-0.9,0-1.6-0.7-1.6-1.6V279
			C290,278.1,290.7,277.4,291.6,277.4z"/>
		<path class="st1" d="M319.9,249.3h19.6c0.9,0,1.6,0.7,1.6,1.6v19.6c0,0.9-0.7,1.6-1.6,1.6h-19.6c-0.9,0-1.6-0.7-1.6-1.6v-19.6
			C318.4,250,319,249.3,319.9,249.3z"/>
		<path class="st1" d="M263.8,277.4h19.6c0.9,0,1.6,0.7,1.6,1.6v19.6c0,0.9-0.7,1.6-1.6,1.6h-19.6c-0.9,0-1.6-0.7-1.6-1.6V279
			C262.2,278.1,262.9,277.4,263.8,277.4z"/>
		<path class="st1" d="M319.9,277.4h19.6c0.9,0,1.6,0.7,1.6,1.6v19.6c0,0.9-0.7,1.6-1.6,1.6h-19.6c-0.9,0-1.6-0.7-1.6-1.6V279
			C318.4,278.1,319,277.4,319.9,277.4z"/>
	</g>
</g>
</svg>
