<svg xmlns="http://www.w3.org/2000/svg" viewBox="0 0 251.27 287.27"><title>Recurso 2</title><g id="Capa_2" data-name="Capa 2"><g id="Capa_2-2" data-name="Capa 2"><path d="M0,151.91q0-57.49,0-115C0,15.72,15.74,0,37,0q88.48,0,177,0c21.42,0,37.16,15.79,37.17,37.27,0,76.65-.12,153.3.15,230,0,10.33-7,20.11-20.18,20-70.48-.42-141-.2-211.45-.19C6.75,287.08,0,280.35,0,267.38Q0,209.65,0,151.91ZM125.8,89.6c-42.35-2.12-82,34.78-81.95,80.88C44,219.19,84.47,252,124.74,252.36c42.75.42,82.46-34.79,82.42-81.82C207.12,124.42,167.6,87.73,125.8,89.6ZM49.27,35.5c-8,0-14.17,5.79-14.33,13.52-.15,7.14,6.62,14.19,13.84,14.41C56.23,63.66,63.09,56.72,63,49A13.69,13.69,0,0,0,49.27,35.5ZM89.45,49.25c0,8,6,14.12,13.6,14.14,7.31,0,14-6.65,14-14.08A13.73,13.73,0,0,0,103.14,35.5C95,35.49,89.4,41.07,89.45,49.25Z"/><path d="M64.39,161.53c6.46,5.21,13.38,8.42,21.1,7.12,5.38-.91,10.62-3.25,15.61-5.62,2.58-1.23,4.06-2.29,6.89-.13,10.8,8.28,23.86,8.15,35.14,0,1.86-1.34,3.25-2.4,5.63-.61,12,9,24.19,8.82,36.45.42a5.55,5.55,0,0,1,1.39-.47c4.37,17.21-2,40.35-21.55,56.92-19.32,16.39-50.3,18.87-71.84,5.14C69.49,209.22,59.63,183.92,64.39,161.53Z"/></g></g></svg>