<svg version="1.1"
      id="Capa_1"
      xmlns="http://www.w3.org/2000/svg"
      x="0px"
      y="0px"
      viewBox="0 0 1333.4 378.4"
      xmlSpace="preserve">
<g>
	<g id="Capa_1-2">
		<path d="M1333.2,79.2c0.3,16.9-7.5,30.8-16.5,44.2c-8.5,12.8-17.7,25.1-26.5,37.7c-13.9,20.1-28,40.2-41.5,60.6
			c-13.2,20-25.9,40.3-38.6,60.7c-3.4,5.5-6.3,11.3-8.9,17.2c-1.8,4,0.7,6.3,4.9,5.7c10.2-1.4,20.5-2.5,30.8-3.6
			c6.8-0.7,13.7-1.8,20.6-1.8c5.7,0.1,11.4,0.7,17.1,1.9c6.1,0.9,12.1,2.3,18,4.2c8.9,3,13.9,10.9,20.3,17.1c2.6,2.3,4.8,5,6.8,7.8
			c1.4,2.1,2.2,4.5,2.1,7c-0.1,1.1-3.2,2.5-5.1,2.8c-11.1,1.2-22.3,2-33.3,3.2c-7.6,0.8-15.2,2-22.8,3.3
			c-15.1,2.5-30.3,4.9-45.3,7.7c-11.2,2.1-22.3,4.8-33.3,7.7c-10.2,2.7-20.1,6.4-30.3,8.8c-2.3,0.5-5.8-1.7-8-3.6
			c-9.5-8.5-19-17.2-28-26.3c-4.6-4.6-4.7-14.5-1.1-20.2c9.5-15,19.1-30,28.6-45s18.6-29.9,28.2-44.6c13.6-20.7,27.4-41.3,41.4-61.8
			c9.3-13.6,18.8-27.1,28.3-40.5c8.2-11.6,16.4-23.2,24.9-34.6c5.6-7.6,9.9-16.1,12.7-25.1c1-3.3,0.2-8-1.5-11
			c-2.6-4.6-7.7-5.2-12.2-2.9c-9,4.6-17.7,9.6-26.1,15.2c-13.5,9.3-26.6,19-39.6,29c-7.6,5.8-14.7,12.2-21.9,18.3
			c-2.8,2.3-5.2,5.3-8.3,7c-2.2,1.2-5.7,1.8-7.8,0.9c-9.7-4.2-19.3-8.8-28.7-13.7c-5.1-2.7-5.8-6-2.6-11.7
			c7.5-13.4,16.6-25.6,28.9-35.1c10.9-8.4,21.5-17.2,32.6-25.3c16.6-12.2,34.3-22.7,54.6-27.7c5.7-1.5,11.4-2.7,17.2-3.6
			c8.7-1.2,15.8,3,21.8,8.4c14.6,13.3,29,26.8,42.8,41c3.3,3.3,4,9.3,5.4,14.2C1333.8,74.4,1333.2,76.9,1333.2,79.2z"/>
		<path d="M1045.6,204.5c3.2,9,6.4,18,9.6,27c1.5,4.1,2.9,8.3,4,12.5c2,8.4-3.8,13.8-8.3,19.5c-11.6,14.6-23.2,29.3-34.9,43.8
			c-6.1,7.5-12.4,14.9-19,22.1c-10.9,11.8-22,23.5-33.1,35.1c-4.7,4.9-5.4,4.5-10.9,0.5c-7.5-5.4-15.6-10.1-23.3-15.3
			c-3-2-5.8-4.2-8.4-6.7c-3.4-3.3-4.7-7.3-5.1-12.3c-1.2-14.7-3.5-29.3-5.2-43.9c-0.8-5.5-1.3-11.1-1.5-16.7
			c-0.1-43.8-0.3-87.7,0.2-131.5c0.1-8.1-3.3-12.4-9.5-16.1c-4.9-2.9-9.7-6-14.4-9.3c-4.2-2.9-4.3-5-0.7-8.7
			c8.1-8.4,16.2-16.7,24.1-25.2c4.6-5,10.8-8.1,17.5-8.9c5.1-0.7,9.9-3,14.9-4.4c13.9-4,27.9-7.7,41.7-11.9
			c16.6-5,33.2-10.5,49.7-15.7c7.6-2.4,11.2,0.2,14.6,7.2c8.4,16.9-4.4,28.7-18.5,34c-16.4,6.2-32.8,12.7-49.2,19.1
			c-4.5,1.8-9.1,3.6-13.6,5.4c-4.1,1.7-5.8,5.1-6,9.3c-0.4,14.4-0.7,28.9-1,43.3c-0.1,2.6-0.9,5.2-0.8,7.8c0.1,1.8,0.6,4.1,1.8,5.2
			c0.9,0.8,3.5,0.6,4.8-0.2c15.8-8.8,31.7-17.6,47.3-26.7c5.6-3.3,8.5-3.1,10.7,2.8c2.8,7.6,5.7,15.3,6.9,23.2
			c1.2,8.1-3.6,14.5-10.2,18.8c-15.4,10.1-31,20-46.5,29.9c-7.4,4.9-13.3,11.8-16.9,19.9c-0.7,1.7-1.1,3.4-1.1,5.2
			c-0.9,15.9,0.7,31.7,3,47.4c0.5,3.8,2.7,4.9,6.1,2.9c3-1.7,5.7-3.8,8.2-6.2c11.2-11.6,22.5-23,33.1-35.1s20.4-24.8,30.4-37.4
			c2.6-3.3,5.1-6.7,7.6-10L1045.6,204.5z"/>
		<path d="M94.7,271.2c0.3-1.5,0.4-3.1,0.5-4.6c-0.3-7.1-1-14.2-0.9-21.3c0.4-17,1.2-34.1,1.9-51.1c0-0.5,0-1,0-1.5
			c0.3-13.3,0.7-26.5,1-39.8c0.4-18.3,2.3-36.3,7.3-53.9c1.9-6.8,2.6-14.1,4.9-20.8c2.9-8.1,8.1-15,16-19c4.6-2.3,11.6,1.4,16.4,7.6
			c6.7,8.6,11.9,18.1,13.6,28.8c0.9,5.4,0,11.1-0.5,16.6c-1,10.1-2.6,20.1-3.7,30.2c-1.5,13.9-2.7,27.8-4,41.7
			c-0.4,4.8-0.6,9.6-1.1,14.3c-1.1,10.3-2.4,20.5-3.7,30.7c-0.2,1.8-0.1,3.6-0.3,5.4c-0.9,8.6-2,17.3-2.8,25.9c-0.4,4,0.1,8-0.3,12
			c-0.9,9.6-2.5,19.2-3.1,28.9s-0.5,19.1-0.1,28.7c0.4,11,2.3,21.9-0.3,32.9c-1.1,4.9-0.7,10.4-5.7,13.4c-2.1,1.2-5.3,2.7-7.1,2
			c-10.5-4.4-21.2-8.7-30.9-14.5c-12.3-7.3-21.5-18.8-25.8-32.3c-4.9-14.6-10.1-29.1-15.3-43.6c-5.3-14.8-11.1-29.4-16-44.3
			c-2.9-8.8-4.3-18-6.5-27c-2.1-8.4-4.6-16.6-6.6-25c-2-8.5-3.5-17.2-5.6-25.7C13,152.9,9.6,140,6,127.2C1.3,110.9-0.6,93.9,0.2,77
			c0.4-8.1,7.3-13.5,15-10.7c3.7,1.2,7.1,3.3,9.9,6c8.1,8.4,16.1,17.1,23.4,26.2c7.8,9.8,9.7,21.9,11.9,33.8c1.1,6.1,2.8,12,4.2,18
			c4,17.8,7.8,35.6,11.9,53.3c2.6,11.1,5.7,22,8.3,33.1c2.4,10.1,4.3,20.3,6.6,30.4c0.5,1.5,1.1,2.9,1.9,4.3L94.7,271.2z"/>
		<path d="M304.1,82.2c1.7,15.7,3.3,31.4,5.1,47.1c1.6,14,3,28,5.1,41.9c2.3,15.8,5.9,31.5,7.6,47.3c1.3,12,5.8,21.6,14.3,29.7
			c2.6,2.5,5.4,5.1,7.2,8.2c2.2,4.1,1.3,9.1-2.1,12.3c-3.9,3.6-2.3,7.1-1.6,10.7c1.4,7.6,3.7,15.2,4.5,22.9
			c1,10.5,0.9,21.2,1.1,31.8c0,2.3-0.3,4.6-1.1,6.7c-1.9,5.7-5,6.8-10.4,3.9c-3.5-1.7-6.8-3.8-9.9-6.2c-4.8-3.8-9.7-6.9-16.1-5.9
			c-3.8,0.6-4.9-1.9-5.4-4.9c-3.3-18.2-6.5-36.5-10.3-54.7c-0.5-2.5-4.3-6.1-6.5-6.1c-13.5,0.3-27.4-0.9-40.2,5.1
			c-4.6,2.1-6.3,6-7,10.5c-2.4,16.5-5.2,32.9-6.8,49.5c-0.7,7.1-0.9,13.8-6.9,18.6c-3.4,2.8-6.8,4.5-11.6,3.1
			c-8.9-2.7-17.9-4.8-26.8-7.2c-6.5-1.8-9.4-8.5-7.6-14.9c2-7.3,3-15,4.7-22.4c1.6-7.1,3.6-14.2,5.3-21.3c3-12.3,5.7-24.7,8.8-37
			c3.2-12.8,6.8-25.4,9.9-38.1c3.5-14.2,6.6-28.5,10.1-42.7c1.9-7.9,4.3-15.6,6.4-23.5c2.2-8.1,4-16.4,6.6-24.5
			c4.2-13.5,8.5-26.9,13.3-40.1c3.3-9,7.6-17.6,11.6-26.4c3.9-8.6,14.4-10.9,22.3-8.2c5.2,1.8,10.3,4.1,15.5,6.1
			c7.8,3,12.2,9,12.2,17V82L304.1,82.2z M263.5,172.2l-1.1,0.8c0.1,1.5,0,3-0.2,4.4c-3.9,15.4-7.9,30.7-12,46.1
			c-1.4,5.3,1.7,8.8,7.1,8.1c4-0.3,8-0.3,12-0.1c6.6,0.2,12.2-1.6,9.3-10.2c-1.2-3.5-2.4-7.1-3.3-10.7c-3.1-11.9-6-23.8-9.1-35.7
			C265.8,173.9,264.4,173.1,263.5,172.2L263.5,172.2z"/>
		<path d="M870,13.6c16.5,0,33,0.5,49.5-0.2c11.2-0.4,23.1,9.9,24,21.3c0.9,10.7-4.6,15.8-12.9,16.8c-7.8,1-15.7,1.6-23.6,2
			c-11.9,0.6-23.9,0.8-35.8,1c-7.3,0.1-10.6,3.2-11,10.7c-0.7,12.5-1.4,25.1-2,37.6c-0.7,15-1.5,30.1-2,45.1
			c-0.5,15.9-0.6,31.9-1.1,47.8c-0.5,13.9-1.3,27.7-2,41.6c-0.3,6.4-0.7,12.9-1,19.3c-0.7,15.9-1.3,31.7-2,47.6
			c-0.5,10.4-1.4,20.7-1.9,31.1c-0.4,6.9-4,9.9-10.3,7.4c-9.1-3.7-18.3-5.8-28.3-5.3c-4.5,0.3-9.3-5.3-9.4-10.4
			c-0.4-20.1-0.9-40.2-1-60.3c0-11.1,0.2-22.2,1-33.3c0.9-12.3,3.1-24.4,3.8-36.7c0.9-15.4,0-30.9,1.3-46.3
			c2.1-21.6,3.1-43.2,2.9-64.9c-0.1-5.9,0.8-11.9,0.9-17.8c0.1-6.2-3-7.8-8.8-6c-4.2,1.3-8.5,2.2-12.8,2.6
			c-15.5,1.5-31.1,2.8-46.7,4c-4.3,0.3-8.7-0.2-13,0.1c-11.8,0.9-23.6,2-35.4,3c-1.1,0.1-2.2,0.4-3.2,1c-8.6,4.7-15.2,0.4-21.3-5
			S656.7,56.5,651,51c-2.2-2.2-4.8-4-7-6.2c-2.7-2.6-2.1-5.4,1.4-6.2c15.2-3.5,30.5-6.9,45.8-10c12.5-2.5,25-4.5,37.5-6.8
			c1-0.2,2-0.2,3-0.3c13.3-1,26.6-1.9,39.9-3c13.6-1.2,27.1-3.3,40.7-3.8c19.2-0.7,38.5-0.2,57.8-0.2L870,13.6z"/>
		<path d="M371.2,281.3c0-6.7,0-13.3,0-20c0.3-32.9,0.7-65.8,1-98.8c0.4-41.1,0.7-82.2,1-123.3c0-1.2,0.1-2.3,0-3.5
			c-0.5-6.3,2.3-8.4,8.2-5.4c4.2,2.2,8,5,11.4,8.4c9.4,9.3,18.6,19,27.7,28.7c1.1,1.4,1.7,3.1,1.7,4.8c0.1,12.8,0.6,25.7-0.1,38.5
			c-0.6,11.3-2.6,22.4-3.7,33.7c-0.7,7.6-1,15.2-1.1,22.8c-0.2,9.3,0.1,18.7-0.1,28c-0.2,12.4-0.7,24.9-1,37.3
			c-0.4,16.4-0.6,32.9-1,49.3c-0.2,7.9-0.8,15.9-0.9,23.8c-0.1,7.1,2.5,8.5,8.6,5.1c17.8-9.9,35.6-19.7,53.3-29.6
			c3-1.7,5.8-3.7,8.8-5.4c3.7-2,7.3-1.6,10.4,1.5c8.7,8.7,17.5,17.4,26.1,26.2c4.6,4.7,3.8,8.6-2.2,11.7
			c-14.4,7.4-28.9,14.7-43.2,22.2c-16.2,8.5-32.3,17.2-48.5,25.6c-12.6,6.5-19.3,5.2-29.4-4.9c-5-5-10.5-9.6-14.9-15.1
			c-6.5-8.1-10.3-18-10.9-28.3c-0.8-11.1-1-22.2-1.5-33.3L371.2,281.3z"/>
		<path d="M612.3,315.3c1.6-17.4,3.6-34.7,4.8-52.1s4.9-34.4,4.5-52.1c-0.5-20.1,1.6-40.3,2.7-60.4c0.4-6.7,6.2-10.6,12.5-8.1
			c8.8,3.4,17.5,7,25.9,11.1c2.1,1,3.5,3.9,4.6,6.2c2.2,4.7,4,9.6,5.9,14.4c9.3,23.1,22,44.2,35.3,65.1c4.2,6.6,7.8,13.5,11.9,20.2
			c0.6,1,2.3,1.3,3.4,1.9c0.5-1.1,1.4-2.3,1.4-3.4c0.5-6.9,0.6-13.9,1.3-20.8c1-10.3,2.5-20.4,3.7-30.7c1.1-9.6,1.4-19.4,3.3-28.8
			c1.2-6.9,6.5-12.3,13.4-13.7c2.9-0.6,7,1.7,9.7,3.8c5.3,4.2,10.3,8.8,14.9,13.8c1.3,1.4,1.6,4.2,1.6,6.4
			c-0.1,4.4-0.4,8.9-0.9,13.3c-1,9.3-2.1,18.5-3.2,27.8c-0.5,4.6-1.4,9.1-1.7,13.6c-1.1,16.9-1.5,34-3.3,50.8
			c-1.2,11.4-4.5,22.5-3.9,34.2c0.2,3.4-2.1,6.6-6.4,5.8c-10.2-2.1-20.6-3.7-30.2-7.3c-4.3-1.6-7.4-7.2-10.2-11.6
			c-12.6-19.4-24.8-39.1-37.2-58.6c-3.5-5.5-6.9-11.1-10.6-16.5c-0.8-1.2-2.7-1.8-4-2.7c-0.8,1.5-1.9,3-2.3,4.6c-0.9,4-1.4,8-2.1,12
			c-0.7,4-1.7,8-1.9,12c-1.1,21.3-2,42.6-3.1,63.9c-0.3,5-3.6,7.5-8.2,6c-7.2-2.5-15-2.5-22.2-0.1c-4.7,1.5-8.5-1.5-8.5-6.5
			c0-4.5,0-9,0-13.5L612.3,315.3z"/>
		<path d="M478.9,202c-0.2-38.9-1-77.7-0.3-116.6c0.2-10-4-15-11.1-19.7c-2.7-1.8-5.5-3.5-8.1-5.4c-2.8-2.1-3-4.3-0.4-7
			c6.3-6.4,12-13.3,18.6-19.3c3.8-3.3,8.2-5.8,12.9-7.3c18.6-5.9,37.3-11.2,56-16.8c9.9-3,19.8-6.2,29.7-9.3
			c5.5-1.8,10.2,0.6,11.9,6.1c3.7,12.1,0.8,19.8-10.9,24.8c-15.8,6.8-32,12.9-48.1,19c-8.5,3.2-10.6,5.8-11,14.6
			c-0.5,11.9-1.3,23.7-1.9,35.6c-0.2,3.4,4.1,5.6,7.7,3.5c11.5-6.6,22.9-13.2,34.1-20.1c5.8-3.6,8.8-3,11,3.5
			c1.8,5.4,4.3,10.9,4.5,16.4c0.1,4-1.8,9.5-4.8,12c-7.6,6.6-16.3,11.9-24.7,17.6c-6.6,4.5-13.7,8.3-20,13.2
			c-5.8,4.5-9.8,10.9-9.8,18.4c0.1,11.5,1.1,23.1,1.9,34.6c0.3,3.8,3.3,4.9,6.1,2.2c9.6-9.4,19.5-18.6,28.5-28.6
			c9.4-10.5,18-21.7,26.9-32.7c1.1-1.4,1.5-3.4,2.8-4.5c1.6-1.2,3.5-2,5.5-2.2c0.6-0.1,1.7,2.3,2.1,3.7c2.4,7.2,3.8,15,7.3,21.7
			c4.3,8,0.7,13-3.9,18.6c-10.7,13.1-21.1,26.4-31.7,39.5c-4.5,5.5-9.2,10.8-13.9,16c-8.2,9-16.6,18-25,26.9c-1.8,1.9-3.7,3.3-6.8,1
			c-8.5-6.3-17.4-12.1-26-18.3c-3.8-2.8-5.1-6.7-5.1-11.6c0.1-5.4-1.2-10.7-1.8-16.1c-0.5-4.4-1-8.8-1.4-13.2L478.9,202z"/>
	</g>
</g>
</svg>
